<svg xmlns="http://www.w3.org/2000/svg" viewBox="0 0 1366.55 402.87"><defs><style>.cls-1{fill:#e41f26;}.cls-2{fill:#fff;}.cls-3{fill:#1d1d1b;}</style></defs><g id="Calque_2" data-name="Calque 2"><g id="Calque_1-2" data-name="Calque 1"><path class="cls-1" d="M372.17,52.68,410.5,325.42a30.61,30.61,0,0,1-26,34.56L81.4,402.57a30.59,30.59,0,0,1-34.55-26L0,43.19,303,.6A61.21,61.21,0,0,1,372.17,52.68Z"/><path class="cls-2" d="M254.53,225.81c-.53-1.15,17.42-9.57,44.13-26.37,13-8.72,29.72-18.47,42.7-34.9,2.87-4.06,5.68-9.62,3.31-14.65-2.4-4.85-8.08-7.22-13.14-9.18-10.65-3.7-22.58-4-34.47-3.15-30.2,2.79-58.11,11-80.45,21.9l0,.09c1,2.12,25.83-9.39,68.37-14.82,10.51-1.11,22.19-1.76,33.78,0,5.56,1.2,11.49,2.48,15.74,5.56,4.73,3.5,3.64,2.07,1.82,7.17-5.85,9.29-18.77,18.57-31.28,26.73a435.13,435.13,0,0,1-41.65,23.3c-29.55,13.81-59.17,25.48-86.32,32.7-27.41,6.27-53.21,12.31-72.9,9-9.82-1.57-18.87-5.12-20.06-10.36-2.45-4.33,3.66-10.79,7.08-15.51,7.59-9.65,11.27-15.61,10.33-16.4s-6.22,3.46-15.39,11.72a76.16,76.16,0,0,0-7.52,7.64c-2.6,2.8-5.81,9.11-4,15.14,3.25,13,16.48,17.25,27.14,20.07,47.21,7.51,107.83-9.21,169.46-38,28.65-15.07,55.69-28.89,76.23-53-23.74,25.82-48.22,35.59-64.92,44.71C265.56,223.33,254.82,226.68,254.53,225.81Z"/><path class="cls-2" d="M163.91,315c0-2.88,40.65,5.28,85.49-13.33,14.12-5.44,26.69-10.53,38-18,0,0-14,4.28-34.2,10.24-21.74,5.75-48.31,13.87-79.79,9.42-31.73-3.86-58.87-14.65-75.22-26.93-16.56-12.14-23.19-24.16-25.71-22.87-1.9.59.81,15.68,17.6,32.41,16.48,16.74,46.7,30.89,81.12,35,16.39,2,32.58,1.54,46.83-1.46C185.43,324.05,163.4,316.38,163.91,315Z"/><path class="cls-2" d="M168.87,149.42c.87-5.95,13.28-29.62,14.74-37.78,3.55-19.79-7.53-38.79-25.24-44.88A79.66,79.66,0,0,1,163.68,113c-1.13,6.28-13.56,30.58-14.72,38.6-2.88,19.9,8.84,38.4,26.76,43.74A79,79,0,0,1,168.87,149.42Z"/><path class="cls-2" d="M194.45,155.09c.16,4.74,6.3,24.44,6.69,31,.94,15.83-7,29.69-18.29,32.81A76.6,76.6,0,0,0,189,183.15c-.3-5-6.41-25.23-6.63-31.62-.53-15.86,7.83-29.26,19.16-31.76A75.12,75.12,0,0,0,194.45,155.09Z"/><path class="cls-3" d="M490.64,57.94h42.79c25.52,0,47.4,9,65.15,26.74s26.74,39.38,26.74,64.67c0,25.77-9,47.4-26.74,64.91-17.75,17.26-39.38,26-65.15,26H490.64Zm9.24,173.82h33.55c23.58,0,43-7.78,58.83-23.34,15.8-15.8,23.58-35.49,23.58-59.07,0-23.1-8-42.79-24.07-58.83q-23.7-24.08-58.34-24.07H499.88Z"/><path class="cls-3" d="M751.74,237.35a69.93,69.93,0,0,1-27.23,5.59c-18.48,0-34.77-6.56-48.86-19.93s-21.15-30.15-21.15-50.08c0-19,6.8-35.25,20.17-49.11,13.62-13.86,30.15-20.91,49.84-20.91,18.72,0,35,6.57,48.86,19.94,14.1,13.37,21.15,29.9,21.15,50.08v67.34H786v-69c0-16.53-6.32-30.63-18.72-42.3s-26.49-17.51-42.78-17.51-30.63,5.84-43,17.75C669.08,140.84,663,155.42,663,172.93q0,24.44,17.51,43c11.91,12.4,26.49,18.47,44,18.47a63.24,63.24,0,0,0,23.82-4.86Z"/><path class="cls-3" d="M833.42,105.1h9v89.71a38.49,38.49,0,0,0,11.19,27.95,37.22,37.22,0,0,0,27.47,11.43,39.1,39.1,0,0,0,37.68-28.44V105.1h9V205.75a40.06,40.06,0,0,0,37.93,28.44,36.33,36.33,0,0,0,27.23-11.43c7.29-7.53,10.93-17,10.93-27.95V105.1h9v93.84c0,12.4-4.86,22.61-14.34,31.12a47.54,47.54,0,0,1-32.82,12.64,48.62,48.62,0,0,1-42.3-25.28,47.94,47.94,0,0,1-42.3,25.28c-12.89,0-24.07-4.62-33.55-13.62a43.27,43.27,0,0,1-14.1-32.57Z"/><path class="cls-3" d="M1144.11,237.35a69.9,69.9,0,0,1-27.23,5.59c-18.47,0-34.76-6.56-48.86-19.93s-21.15-30.15-21.15-50.08c0-19,6.8-35.25,20.17-49.11,13.62-13.86,30.15-20.91,49.84-20.91,18.72,0,35,6.57,48.86,19.94,14.1,13.37,21.15,29.9,21.15,50.08v67.34h-8.5v-69c0-16.53-6.32-30.63-18.72-42.3s-26.5-17.51-42.79-17.51-30.63,5.84-43,17.75c-12.4,11.67-18.47,26.25-18.47,43.76q0,24.44,17.5,43c11.91,12.4,26.5,18.47,44,18.47a63.29,63.29,0,0,0,23.83-4.86Z"/><path class="cls-3" d="M1366.55,240.27h-9V172.44q0-25.16-18.23-43c-12.15-12.15-26.5-18.23-43.27-18.23q-24.79,0-43,18.23-18.24,17.86-18.23,43v67.83h-9V172.44c0-19.2,6.81-35.49,20.67-49.11,13.85-13.85,30.38-20.66,49.59-20.66s35.74,6.81,49.59,20.66c13.86,13.62,20.91,29.91,20.91,49.11Z"/><path class="cls-1" d="M511,326.52l1-15.06,1.33-31.2.44-14.42q-12,0-21.1.44c.2-2.62.31-4.94.34-6.94q12.51.06,27,.05l15.74-.05H544q-.35,4.37-.35,6.94-7.62-.43-16.88-.44h-4l-1,21.78-1,30.69v8.21l-4.73-.1Z"/><path class="cls-1" d="M550,326.52q1.77-28.39,1.77-45.33l0-4.52c1.67,0,3,.05,4.13.05,1.25,0,2.64,0,4.19-.05l-.4,8.17a30.2,30.2,0,0,1,3.23-4.61,12.7,12.7,0,0,1,3.17-2.55,15.82,15.82,0,0,1,4-1.58,18.74,18.74,0,0,1,4.65-.57,17.15,17.15,0,0,1,4.09.5q0,3.24.34,7.28a20.77,20.77,0,0,0-5.46-.84,13.53,13.53,0,0,0-5.22,1,12.05,12.05,0,0,0-4.15,2.91,15.85,15.85,0,0,0-3,4.65,21.06,21.06,0,0,0-1.5,5.61q-.51,3.43-.81,12.55-.19,6.64-.2,14.07v3.3c-1.77-.06-3.2-.1-4.28-.1S552,326.46,550,326.52Z"/><path class="cls-1" d="M590,284.59c.3-1.44.61-3.58.94-6.4a88.25,88.25,0,0,1,10.26-2.09,65.33,65.33,0,0,1,8.49-.57,40.32,40.32,0,0,1,8.29.82,16.94,16.94,0,0,1,6.42,2.63,8.82,8.82,0,0,1,3.4,4.18,15.07,15.07,0,0,1,.84,5.07c0,2.27-.18,6.06-.52,11.4s-.6,10.26-.78,14.78S627,323,627,326.52c-1.77-.06-3.22-.1-4.33-.1s-2.55,0-4.49.1l1-13.43.75-15.9c-1.15.88-2,1.51-2.59,1.87a14.18,14.18,0,0,1-1.95,1,24.92,24.92,0,0,1-2.38.88q-1.32.42-5.08,1.46T602.68,304a30.75,30.75,0,0,0-5.37,2.17,15.7,15.7,0,0,0-3.3,2.36,7.76,7.76,0,0,0-1.87,2.56,8.61,8.61,0,0,0-.64,3.29,7.17,7.17,0,0,0,1.57,4.63,8.15,8.15,0,0,0,4,2.73,18.87,18.87,0,0,0,5.73.77,34.72,34.72,0,0,0,4.33-.29,36.28,36.28,0,0,0,6-1.49,52.12,52.12,0,0,0-1.57,5.86,53.16,53.16,0,0,1-5.86.86c-1.51.12-2.94.17-4.28.17q-6.75,0-10.53-1.57a11.28,11.28,0,0,1-5.66-4.8,13.71,13.71,0,0,1-1.87-7,12.23,12.23,0,0,1,.66-4.09,12.94,12.94,0,0,1,1.8-3.39,14.91,14.91,0,0,1,3.22-3.06,22.85,22.85,0,0,1,4.38-2.5,56.44,56.44,0,0,1,5.34-1.95q3.06-1,9.8-2.58c1.44-.33,2.67-.67,3.69-1s1.92-.68,2.71-1a9.53,9.53,0,0,0,2.07-1.16,8.28,8.28,0,0,0,1.62-1.62,7.11,7.11,0,0,0,1.08-1.94,6.06,6.06,0,0,0-1.23-6.11,8.4,8.4,0,0,0-4.11-2.41,22.92,22.92,0,0,0-6-.69,42.71,42.71,0,0,0-6.57.52,44.12,44.12,0,0,0-5.81,1.23Q593.62,283.17,590,284.59Z"/><path class="cls-1" d="M642,326.52l.85-12.4,1-21.16.4-16.29,4.54.05,4.43-.05q-.56,7.66-1,16.06t-.73,18.34q-.27,9.94-.27,15.45c-2.07-.06-3.55-.1-4.44-.1S644.36,326.46,642,326.52Zm2.26-60.58q.15-4.63.15-7c1.8.07,3.39.1,4.77.1,1.74,0,3.31,0,4.73-.1q-.11,1.53-.3,7c-1.77,0-3.3-.05-4.58-.05S646.19,265.91,644.29,265.94Z"/><path class="cls-1" d="M665.58,326.52q2.35-30.86,2.45-49.85l4.44.05c1.08,0,2.51,0,4.28-.05l-.65,9.84c.82-1.38,1.48-2.44,2-3.17a16.1,16.1,0,0,1,2-2.34,16.45,16.45,0,0,1,6.85-4.06,29.19,29.19,0,0,1,4.6-1.06,32,32,0,0,1,12.82.69,15,15,0,0,1,6.48,3.37,11.58,11.58,0,0,1,3.39,5.24,21.71,21.71,0,0,1,.86,6.25c0,.43,0,1.25,0,2.46s-.09,2.81-.19,4.78l-1,20.62q-.09,3-.14,7.23c-1.48-.06-2.88-.1-4.19-.1-1.61,0-3.12,0-4.53.1q.49-6,.74-11.47l.65-11.46q.28-5.91.29-8.91a14,14,0,0,0-1.47-6.92,9.62,9.62,0,0,0-4.73-4,18.17,18.17,0,0,0-7.3-1.4,17.36,17.36,0,0,0-9.8,2.7,16.45,16.45,0,0,0-5.82,7.14,33.71,33.71,0,0,0-2,9.74q-.75,7.73-1,24.56c-1.83-.06-3.25-.1-4.26-.1S667.64,326.46,665.58,326.52Z"/><path class="cls-1" d="M728.32,326.52l.85-12.4,1-21.16.4-16.29,4.54.05,4.43-.05q-.56,7.66-1,16.06t-.73,18.34q-.27,9.94-.27,15.45c-2.07-.06-3.55-.1-4.44-.1S730.65,326.46,728.32,326.52Zm2.26-60.58q.15-4.63.15-7c1.8.07,3.39.1,4.77.1,1.74,0,3.31,0,4.73-.1q-.11,1.53-.3,7c-1.77,0-3.3-.05-4.58-.05S732.48,265.91,730.58,265.94Z"/><path class="cls-1" d="M751.87,326.52q2.36-30.86,2.45-49.85l4.44.05c1.08,0,2.51,0,4.28-.05l-.65,9.84c.82-1.38,1.48-2.44,2-3.17a16.1,16.1,0,0,1,2-2.34,16.45,16.45,0,0,1,6.85-4.06,29.19,29.19,0,0,1,4.6-1.06,32,32,0,0,1,12.82.69,15,15,0,0,1,6.48,3.37,11.58,11.58,0,0,1,3.39,5.24,21.71,21.71,0,0,1,.86,6.25c0,.43,0,1.25-.05,2.46s-.09,2.81-.19,4.78l-1,20.62q-.09,3-.14,7.23c-1.48-.06-2.88-.1-4.19-.1-1.61,0-3.12,0-4.53.1q.5-6,.74-11.47l.65-11.46q.29-5.91.29-8.91a14,14,0,0,0-1.47-6.92,9.62,9.62,0,0,0-4.73-4,18.17,18.17,0,0,0-7.3-1.4,17.36,17.36,0,0,0-9.8,2.7,16.45,16.45,0,0,0-5.82,7.14,33.71,33.71,0,0,0-2,9.74q-.75,7.73-1,24.56c-1.83-.06-3.25-.1-4.26-.1S753.93,326.46,751.87,326.52Z"/><path class="cls-1" d="M817.46,340.94a84.35,84.35,0,0,0,10.88,2.66,51.53,51.53,0,0,0,8,.69,24.63,24.63,0,0,0,7.58-1.13,14.87,14.87,0,0,0,5-2.66,10.48,10.48,0,0,0,2.61-3.45,24.86,24.86,0,0,0,1.82-7.13q.44-3.5.68-13.93a36.54,36.54,0,0,1-2.14,3.59,16.76,16.76,0,0,1-2.58,2.83,18.71,18.71,0,0,1-3.79,2.59,21.24,21.24,0,0,1-5,1.79,26.09,26.09,0,0,1-5.9.67,27.88,27.88,0,0,1-8.4-1.23,18,18,0,0,1-11.66-11.37,27.24,27.24,0,0,1-1.6-9.26A33.93,33.93,0,0,1,815.27,293a25.7,25.7,0,0,1,7-10,26.91,26.91,0,0,1,10.38-5.71,45.34,45.34,0,0,1,12.68-1.68,111.07,111.07,0,0,1,18.85,2l-.55,6.06-1.48,27.61q0,.82-.25,10l-.29,10.18a32.82,32.82,0,0,1-.89,5.71,19.59,19.59,0,0,1-1.57,3.84,13.45,13.45,0,0,1-2.22,3.05,15,15,0,0,1-3,2.56,17.12,17.12,0,0,1-3.69,1.82,30.4,30.4,0,0,1-5.71,1.43,41.91,41.91,0,0,1-6.69.54,92.21,92.21,0,0,1-9.47-.49A82.68,82.68,0,0,1,818,348l-.14-2.71C817.77,344.66,817.66,343.2,817.46,340.94Zm37.83-58.07A53.66,53.66,0,0,0,845,281.78a33.28,33.28,0,0,0-8.93,1.14,18.91,18.91,0,0,0-7.53,4.13,20.16,20.16,0,0,0-5.33,7.78,26.26,26.26,0,0,0-1.92,9.89,21.14,21.14,0,0,0,1.75,8.71,12.12,12.12,0,0,0,5.38,5.93,18.42,18.42,0,0,0,15.37.59,15.24,15.24,0,0,0,5.54-4.31,20,20,0,0,0,3.74-6.89,38,38,0,0,0,1.42-8.17Q854.89,296.26,855.29,282.87Z"/><path class="cls-1" d="M903.41,326.52l.85-12.4,1-21.16.4-16.29,4.54.05,4.43-.05q-.55,7.66-1,16.06t-.72,18.34q-.29,9.94-.28,15.45c-2.07-.06-3.55-.1-4.43-.1S905.74,326.46,903.41,326.52Zm2.26-60.58q.15-4.63.15-7c1.8.07,3.39.1,4.77.1,1.74,0,3.31,0,4.73-.1q-.11,1.53-.3,7c-1.77,0-3.3-.05-4.58-.05S907.57,265.91,905.67,265.94Z"/><path class="cls-1" d="M925,325.59l-.3-3.62c0-.4-.13-1.65-.39-3.77a35.27,35.27,0,0,0,14,3.3,15.91,15.91,0,0,0,5.66-.88,6.93,6.93,0,0,0,3.47-2.63,6.43,6.43,0,0,0,1.16-3.6,7,7,0,0,0-.32-2.06,7.44,7.44,0,0,0-1-2,13,13,0,0,0-1.89-2.11c-.84-.76-2.58-2.22-5.22-4.35s-4.64-3.79-6-5a26.52,26.52,0,0,1-3.49-3.69,14.27,14.27,0,0,1-2.14-3.82,11.4,11.4,0,0,1-.69-3.89,10.75,10.75,0,0,1,2-6.1,11.8,11.8,0,0,1,5.76-4.4,24.48,24.48,0,0,1,8.84-1.46,65.77,65.77,0,0,1,12.45,1.33q.2,3.84.49,7a28.48,28.48,0,0,0-10.88-2.26,18.29,18.29,0,0,0-5.39.76,7,7,0,0,0-3.64,2.29,5.41,5.41,0,0,0-1.15,3.34,6.65,6.65,0,0,0,.39,2.27,8.53,8.53,0,0,0,1.4,2.34,19.53,19.53,0,0,0,2.44,2.48q1.43,1.23,5.68,4.63a67.18,67.18,0,0,1,5.83,5,22.81,22.81,0,0,1,2.71,3.34,13.38,13.38,0,0,1,1.65,3.42,12.06,12.06,0,0,1,.52,3.47,11,11,0,0,1-2,6.4,13,13,0,0,1-6.07,4.58,24.13,24.13,0,0,1-9.06,1.62c-1.41,0-3.07-.09-5-.27s-3.52-.39-4.85-.64S926.91,326.08,925,325.59Z"/><path class="cls-1" d="M1020.09,275.53a32.67,32.67,0,0,1,9.85,1.48,20.9,20.9,0,0,1,8.09,4.68,20.44,20.44,0,0,1,5.2,8.07A29.86,29.86,0,0,1,1045,300a33.22,33.22,0,0,1-1.9,11.22,26.16,26.16,0,0,1-5.31,9.11,20.39,20.39,0,0,1-8.37,5.49,31.72,31.72,0,0,1-10.6,1.74,31,31,0,0,1-10-1.57,21,21,0,0,1-8.09-4.92,21.7,21.7,0,0,1-5.19-8.2,29.16,29.16,0,0,1-1.78-10.16,31.59,31.59,0,0,1,3.25-14.44,21.14,21.14,0,0,1,9.55-9.6A29.49,29.49,0,0,1,1020.09,275.53Zm-.22,6.25a17.65,17.65,0,0,0-9.21,2.51,15,15,0,0,0-6.22,7.56,29.44,29.44,0,0,0-2,11,24.8,24.8,0,0,0,1.67,9.37,14.31,14.31,0,0,0,5.5,6.72,16.25,16.25,0,0,0,9.24,2.56,19.58,19.58,0,0,0,7-1.25,14.15,14.15,0,0,0,5.75-4.16,18.71,18.71,0,0,0,3.64-7.11,32.87,32.87,0,0,0,1.17-8.84,27.44,27.44,0,0,0-1.17-8.12,13.48,13.48,0,0,0-9.12-9.3A21.37,21.37,0,0,0,1019.87,281.78Z"/><path class="cls-1" d="M1102.86,326.52c-1.61-.06-3-.1-4.13-.1-1.32,0-2.68,0-4.09.1l.24-9.5a31,31,0,0,1-2,3.42,14.93,14.93,0,0,1-2.14,2.37,16,16,0,0,1-2.63,1.94,17.83,17.83,0,0,1-3.18,1.4,27.34,27.34,0,0,1-4.25,1,30.68,30.68,0,0,1-5.2.42,25.93,25.93,0,0,1-10.26-1.82,14,14,0,0,1-6.44-5.16q-2.19-3.36-2.19-9.16,0-.88.09-3c.07-1.41.17-3.25.3-5.51l.82-16.39.15-5.27c0-1.21,0-2.75,0-4.62l4.53.05c.92,0,2.34,0,4.24-.05q-.69,8.61-1.32,18.85t-.62,13.09a14.58,14.58,0,0,0,1.4,6.91,9.26,9.26,0,0,0,4.68,4,18.79,18.79,0,0,0,7.41,1.4,19.56,19.56,0,0,0,7-1.28,14.34,14.34,0,0,0,4.82-3.05,17.26,17.26,0,0,0,3.55-5.46,25.87,25.87,0,0,0,1.57-6.35q.35-2.81.69-10.09.39-8.87.54-18l4.58.05c1,0,2.37,0,4.14-.05q-.69,8.85-1.62,26.92Q1103,313.52,1102.86,326.52Z"/><path class="cls-1" d="M1117.36,326.52q1.77-28.39,1.77-45.33l-.05-4.52c1.67,0,3.05.05,4.13.05,1.25,0,2.65,0,4.19-.05l-.39,8.17a30.26,30.26,0,0,1,3.22-4.61,12.88,12.88,0,0,1,3.17-2.55,15.9,15.9,0,0,1,4-1.58,18.74,18.74,0,0,1,4.65-.57,17.13,17.13,0,0,1,4.08.5q0,3.24.35,7.28a20.9,20.9,0,0,0-5.47-.84,13.48,13.48,0,0,0-5.21,1,12.09,12.09,0,0,0-4.16,2.91,15.85,15.85,0,0,0-3,4.65,21.85,21.85,0,0,0-1.5,5.61q-.51,3.43-.81,12.55-.19,6.64-.19,14.07v3.3c-1.78-.06-3.21-.1-4.29-.1S1119.36,326.46,1117.36,326.52Z"/><path class="cls-1" d="M1193.7,326.52l-2.32-7.13-15.29-42.72c1.8,0,3.26.05,4.37.05s2.39,0,4-.05l4.34,13.24,10,29,15.56-42.22c1.77,0,3.28.05,4.52.05s2.82,0,4.43-.05l11.37,42.22,13.74-32.68,3.83-9.54c1.78,0,3.14.05,4.1.05l4.24-.05-16.59,37.1-5.41,12.75c-1.63-.06-3.13-.1-4.5-.1s-3.06,0-5,.1L1220.12,292c-.6-2.26-1.22-4.51-1.88-6.74l-1,2.56q-.45,1.08-2,5.46l-10.39,28.35c-.49,1.34-1.07,3-1.72,4.92-1.67-.06-3.18-.1-4.52-.1S1195.53,326.46,1193.7,326.52Z"/><path class="cls-1" d="M1269.48,284.59c.3-1.44.61-3.58.94-6.4a88.25,88.25,0,0,1,10.26-2.09,65.33,65.33,0,0,1,8.49-.57,40.39,40.39,0,0,1,8.29.82,16.94,16.94,0,0,1,6.42,2.63,8.82,8.82,0,0,1,3.4,4.18,15.07,15.07,0,0,1,.84,5.07c0,2.27-.18,6.06-.52,11.4s-.6,10.26-.78,14.78-.27,8.57-.27,12.11c-1.77-.06-3.22-.1-4.33-.1s-2.55,0-4.49.1l1-13.43.75-15.9c-1.15.88-2,1.51-2.59,1.87a14.18,14.18,0,0,1-2,1,24.18,24.18,0,0,1-2.39.88q-1.3.42-5.07,1.46t-5.34,1.57a30.75,30.75,0,0,0-5.37,2.17,15.7,15.7,0,0,0-3.3,2.36,7.76,7.76,0,0,0-1.87,2.56,8.61,8.61,0,0,0-.64,3.29,7.17,7.17,0,0,0,1.57,4.63,8.17,8.17,0,0,0,4,2.73,19,19,0,0,0,5.74.77,34.72,34.72,0,0,0,4.33-.29,36.28,36.28,0,0,0,6.05-1.49,52.12,52.12,0,0,0-1.57,5.86,53.16,53.16,0,0,1-5.86.86c-1.51.12-2.94.17-4.28.17q-6.75,0-10.53-1.57a11.28,11.28,0,0,1-5.66-4.8,13.71,13.71,0,0,1-1.87-7,12.23,12.23,0,0,1,.66-4.09,12.94,12.94,0,0,1,1.8-3.39,14.91,14.91,0,0,1,3.22-3.06,22.85,22.85,0,0,1,4.38-2.5,56.44,56.44,0,0,1,5.34-1.95q3.06-1,9.8-2.58c1.44-.33,2.67-.67,3.69-1s1.92-.68,2.71-1a9.22,9.22,0,0,0,2.06-1.16,8.06,8.06,0,0,0,1.63-1.62,7.11,7.11,0,0,0,1.08-1.94,6.06,6.06,0,0,0-1.23-6.11,8.4,8.4,0,0,0-4.11-2.41,22.92,22.92,0,0,0-6-.69,42.71,42.71,0,0,0-6.57.52,44.12,44.12,0,0,0-5.81,1.23Q1273.13,283.17,1269.48,284.59Z"/><path class="cls-1" d="M1313.12,349.31q-.34-4.15-.84-7a19.41,19.41,0,0,0,4.59,1.6,19,19,0,0,0,3.59.42,10.55,10.55,0,0,0,3.75-.69,8.3,8.3,0,0,0,3-1.84,17.56,17.56,0,0,0,2.39-3.14c.84-1.33,1.73-2.9,2.66-4.69a57.33,57.33,0,0,0,2.69-6L1324.4,298l-7.69-21.36q3.6.09,4.77.09c.92,0,2.41,0,4.48-.09.52,2.29,1,4.05,1.33,5.26s1.15,3.69,2.37,7.43l7.45,22.57q1.23,3.84,2.46,8.26l5.57-13.57,10.3-24.05c.3-.72.58-1.47.86-2.24s.72-2,1.31-3.66q3.14.09,4.35.09,1,0,4.56-.09-1.92,4.36-9.3,20.41L1339,337.65a36.79,36.79,0,0,1-3.5,6.2,18.16,18.16,0,0,1-2.75,2.9,12.57,12.57,0,0,1-2.66,1.77,18.79,18.79,0,0,1-4,1.38,23.19,23.19,0,0,1-4.72.49A35.55,35.55,0,0,1,1313.12,349.31Z"/></g></g></svg>