<svg xmlns="http://www.w3.org/2000/svg" xmlns:xlink="http://www.w3.org/1999/xlink" version="1.1" width="256" height="256" viewBox="0 0 256 256" xml:space="preserve">

<defs>
</defs>
<g style="stroke: none; stroke-width: 0; stroke-dasharray: none; stroke-linecap: butt; stroke-linejoin: miter; stroke-miterlimit: 10; fill: none; fill-rule: nonzero; opacity: 1;" transform="translate(1.4065934065934016 1.4065934065934016) scale(2.81 2.81)" >
	<path d="M 88.015 38.609 c 0.001 -0.043 -0.017 -0.08 -0.022 -0.121 c -0.006 -0.061 -0.015 -0.117 -0.031 -0.175 c -0.024 -0.084 -0.058 -0.158 -0.101 -0.232 c -0.018 -0.031 -0.021 -0.068 -0.042 -0.097 l -12.844 -17.64 c -0.002 -0.003 -0.006 -0.005 -0.009 -0.008 c -0.029 -0.039 -0.07 -0.064 -0.104 -0.098 c -0.054 -0.054 -0.102 -0.115 -0.167 -0.156 l -18.452 -11.7 c -0.026 -0.016 -0.056 -0.023 -0.083 -0.037 c -0.031 -0.016 -0.062 -0.03 -0.095 -0.043 c -0.1 -0.039 -0.203 -0.064 -0.311 -0.07 c -0.012 -0.001 -0.022 -0.007 -0.035 -0.008 c -0.004 0 -0.007 0.002 -0.011 0.001 c -0.004 0 -0.009 -0.002 -0.013 -0.002 L 32.163 8.231 c -0.023 0 -0.045 0.008 -0.068 0.009 c -0.013 0.001 -0.025 -0.005 -0.038 -0.004 c -0.019 0.002 -0.034 0.013 -0.052 0.016 c -0.1 0.016 -0.196 0.046 -0.288 0.09 c -0.02 0.01 -0.043 0.016 -0.062 0.027 c -0.008 0.004 -0.016 0.006 -0.024 0.01 l -19.03 11.611 c -0.025 0.015 -0.037 0.046 -0.061 0.063 c -0.093 0.068 -0.172 0.15 -0.239 0.248 c -0.016 0.024 -0.046 0.037 -0.06 0.063 L 2.115 38.467 c -0.025 0.044 -0.028 0.095 -0.046 0.142 c -0.017 0.045 -0.048 0.082 -0.059 0.13 c -0.004 0.019 0.002 0.037 -0.001 0.055 c -0.012 0.068 -0.007 0.135 -0.005 0.204 c 0.002 0.067 0.001 0.133 0.016 0.197 c 0.004 0.017 -0.001 0.034 0.004 0.05 l 4.873 17.182 c 0.098 0.349 0.374 0.618 0.724 0.71 l 13.359 3.507 l 3.569 20.287 c 0.066 0.379 0.339 0.687 0.705 0.8 c 0.099 0.031 0.201 0.046 0.302 0.046 c 0.271 0 0.536 -0.108 0.731 -0.308 l 15.873 -16.236 l 14.232 7.23 c 0.47 0.238 1.046 0.081 1.327 -0.365 l 9.071 -14.307 l 16.153 -1.6 c 0.038 -0.004 0.072 -0.02 0.109 -0.028 c 0.051 -0.011 0.101 -0.02 0.151 -0.039 c 0.056 -0.021 0.107 -0.052 0.158 -0.082 c 0.031 -0.019 0.066 -0.028 0.096 -0.05 c 0.009 -0.006 0.012 -0.016 0.02 -0.023 c 0.095 -0.076 0.177 -0.165 0.24 -0.27 c 0.014 -0.023 0.019 -0.049 0.031 -0.073 c 0.033 -0.065 0.068 -0.13 0.086 -0.203 l 4.15 -16.589 c 0.009 -0.034 -0.002 -0.069 0.003 -0.103 C 87.994 38.689 88.014 38.653 88.015 38.609 z M 82.372 52.845 L 72.171 39.269 l 13.519 0.31 L 82.372 52.845 z M 66.502 55.765 l -12.273 -9.641 l 15.524 -6.668 l 11.181 14.88 L 66.502 55.765 z M 41.432 62.83 l -17.709 -3.67 l 9.916 -12.273 h 16.846 L 41.432 62.83 z M 13.608 22.112 l 18.562 6.463 L 17.811 41.292 L 4.567 38.273 L 13.608 22.112 z M 33.267 44.841 l -13.006 -2.987 L 34.12 29.58 l 15.613 15.261 H 33.267 z M 36.406 28.953 l 18.588 -2.139 l 13.168 11.099 l -15.695 6.741 L 36.406 28.953 z M 56.678 11.079 l 14.921 9.462 L 56.37 24.424 L 56.678 11.079 z M 54.314 24.833 l -19.25 2.215 L 33.3 10.276 l 21.35 -0.007 L 54.314 24.833 z M 32.969 26.687 L 15.514 20.61 l 15.801 -9.641 L 32.969 26.687 z M 31.327 46.494 l -8.906 11.023 l -2.985 -13.754 L 31.327 46.494 z M 70.472 37.185 L 57.496 26.247 l 16.234 -4.139 l 11.218 15.408 L 70.472 37.185 z M 4.462 40.347 l 12.772 2.911 l 3.288 15.151 L 8.705 55.308 L 4.462 40.347 z M 26.218 78.614 l -3.076 -17.485 l 16.773 3.476 L 26.218 78.614 z M 56.491 70.219 l -13.118 -6.663 l 9.172 -16.154 l 12.29 9.655 L 56.491 70.219 z" style="stroke: none; stroke-width: 1; stroke-dasharray: none; stroke-linecap: butt; stroke-linejoin: miter; stroke-miterlimit: 10; fill: rgb(201,207,212); fill-rule: nonzero; opacity: 1;" transform=" matrix(1 0 0 1 0 0) " stroke-linecap="round" />
	<circle cx="13.137" cy="20.867" r="3.007" style="stroke: none; stroke-width: 1; stroke-dasharray: none; stroke-linecap: butt; stroke-linejoin: miter; stroke-miterlimit: 10; fill: rgb(241,123,123); fill-rule: nonzero; opacity: 1;" transform="  matrix(1 0 0 1 0 0) "/>
	<circle cx="34.16" cy="28.18" r="6.14" style="stroke: none; stroke-width: 1; stroke-dasharray: none; stroke-linecap: butt; stroke-linejoin: miter; stroke-miterlimit: 10; fill: rgb(241,123,123); fill-rule: nonzero; opacity: 1;" transform="  matrix(1 0 0 1 0 0) "/>
	<circle cx="55.317" cy="25.747" r="5.607" style="stroke: none; stroke-width: 1; stroke-dasharray: none; stroke-linecap: butt; stroke-linejoin: miter; stroke-miterlimit: 10; fill: rgb(126,198,197); fill-rule: nonzero; opacity: 1;" transform="  matrix(1 0 0 1 0 0) "/>
	<circle cx="52.237" cy="45.867" r="6.897" style="stroke: none; stroke-width: 1; stroke-dasharray: none; stroke-linecap: butt; stroke-linejoin: miter; stroke-miterlimit: 10; fill: rgb(247,191,80); fill-rule: nonzero; opacity: 1;" transform="  matrix(1 0 0 1 0 0) "/>
	<circle cx="18.101" cy="42.401" r="4.581" style="stroke: none; stroke-width: 1; stroke-dasharray: none; stroke-linecap: butt; stroke-linejoin: miter; stroke-miterlimit: 10; fill: rgb(247,191,80); fill-rule: nonzero; opacity: 1;" transform="  matrix(1 0 0 1 0 0) "/>
	<circle cx="7.877000000000001" cy="56.147" r="3.007" style="stroke: none; stroke-width: 1; stroke-dasharray: none; stroke-linecap: butt; stroke-linejoin: miter; stroke-miterlimit: 10; fill: rgb(126,198,197); fill-rule: nonzero; opacity: 1;" transform="  matrix(1 0 0 1 0 0) "/>
	<circle cx="3.007" cy="38.967" r="3.007" style="stroke: none; stroke-width: 1; stroke-dasharray: none; stroke-linecap: butt; stroke-linejoin: miter; stroke-miterlimit: 10; fill: rgb(247,191,80); fill-rule: nonzero; opacity: 1;" transform="  matrix(1 0 0 1 0 0) "/>
	<circle cx="32.167" cy="9.257" r="3.007" style="stroke: none; stroke-width: 1; stroke-dasharray: none; stroke-linecap: butt; stroke-linejoin: miter; stroke-miterlimit: 10; fill: rgb(247,191,80); fill-rule: nonzero; opacity: 1;" transform="  matrix(1 0 0 1 0 0) "/>
	<circle cx="55.696999999999996" cy="9.247" r="3.007" style="stroke: none; stroke-width: 1; stroke-dasharray: none; stroke-linecap: butt; stroke-linejoin: miter; stroke-miterlimit: 10; fill: rgb(247,191,80); fill-rule: nonzero; opacity: 1;" transform="  matrix(1 0 0 1 0 0) "/>
	<circle cx="74.147" cy="20.947000000000003" r="3.007" style="stroke: none; stroke-width: 1; stroke-dasharray: none; stroke-linecap: butt; stroke-linejoin: miter; stroke-miterlimit: 10; fill: rgb(126,198,197); fill-rule: nonzero; opacity: 1;" transform="  matrix(1 0 0 1 0 0) "/>
	<circle cx="86.997" cy="38.586999999999996" r="3.007" style="stroke: none; stroke-width: 1; stroke-dasharray: none; stroke-linecap: butt; stroke-linejoin: miter; stroke-miterlimit: 10; fill: rgb(241,123,123); fill-rule: nonzero; opacity: 1;" transform="  matrix(1 0 0 1 0 0) "/>
	<circle cx="70.08399999999999" cy="38.194" r="3.514" style="stroke: none; stroke-width: 1; stroke-dasharray: none; stroke-linecap: butt; stroke-linejoin: miter; stroke-miterlimit: 10; fill: rgb(247,191,80); fill-rule: nonzero; opacity: 1;" transform="  matrix(1 0 0 1 0 0) "/>
	<circle cx="82.84700000000001" cy="55.177" r="3.007" style="stroke: none; stroke-width: 1; stroke-dasharray: none; stroke-linecap: butt; stroke-linejoin: miter; stroke-miterlimit: 10; fill: rgb(247,191,80); fill-rule: nonzero; opacity: 1;" transform="  matrix(1 0 0 1 0 0) "/>
	<circle cx="66.197" cy="56.827" r="3.007" style="stroke: none; stroke-width: 1; stroke-dasharray: none; stroke-linecap: butt; stroke-linejoin: miter; stroke-miterlimit: 10; fill: rgb(126,198,197); fill-rule: nonzero; opacity: 1;" transform="  matrix(1 0 0 1 0 0) "/>
	<circle cx="56.857" cy="71.557" r="3.007" style="stroke: none; stroke-width: 1; stroke-dasharray: none; stroke-linecap: butt; stroke-linejoin: miter; stroke-miterlimit: 10; fill: rgb(247,191,80); fill-rule: nonzero; opacity: 1;" transform="  matrix(1 0 0 1 0 0) "/>
	<circle cx="41.957" cy="63.987" r="4.527" style="stroke: none; stroke-width: 1; stroke-dasharray: none; stroke-linecap: butt; stroke-linejoin: miter; stroke-miterlimit: 10; fill: rgb(241,123,123); fill-rule: nonzero; opacity: 1;" transform="  matrix(1 0 0 1 0 0) "/>
	<circle cx="25.557000000000002" cy="80.757" r="3.007" style="stroke: none; stroke-width: 1; stroke-dasharray: none; stroke-linecap: butt; stroke-linejoin: miter; stroke-miterlimit: 10; fill: rgb(126,198,197); fill-rule: nonzero; opacity: 1;" transform="  matrix(1 0 0 1 0 0) "/>
	<circle cx="21.877000000000002" cy="59.817" r="3.007" style="stroke: none; stroke-width: 1; stroke-dasharray: none; stroke-linecap: butt; stroke-linejoin: miter; stroke-miterlimit: 10; fill: rgb(247,191,80); fill-rule: nonzero; opacity: 1;" transform="  matrix(1 0 0 1 0 0) "/>
	<circle cx="33.147" cy="45.867000000000004" r="4.527" style="stroke: none; stroke-width: 1; stroke-dasharray: none; stroke-linecap: butt; stroke-linejoin: miter; stroke-miterlimit: 10; fill: rgb(126,198,197); fill-rule: nonzero; opacity: 1;" transform="  matrix(1 0 0 1 0 0) "/>
</g>
</svg>