<svg xmlns="http://www.w3.org/2000/svg" xmlns:xlink="http://www.w3.org/1999/xlink" version="1.1" width="256" height="256" viewBox="0 0 256 256" xml:space="preserve">

<defs>
</defs>
<g style="stroke: none; stroke-width: 0; stroke-dasharray: none; stroke-linecap: butt; stroke-linejoin: miter; stroke-miterlimit: 10; fill: none; fill-rule: nonzero; opacity: 1;" transform="translate(1.4065934065934016 1.4065934065934016) scale(2.81 2.81)" >
	<path d="M 42.795 23.008 c 0 -0.552 -0.448 -1 -1 -1 H 25.677 L 5.327 11.131 c -0.31 -0.166 -0.683 -0.157 -0.985 0.024 c -0.301 0.181 -0.486 0.506 -0.486 0.858 v 65.975 c 0 0.352 0.185 0.677 0.486 0.857 c 0.158 0.095 0.336 0.143 0.514 0.143 c 0.162 0 0.324 -0.039 0.471 -0.118 l 20.351 -10.878 h 16.118 c 0.552 0 1 -0.447 1 -1 s -0.448 -1 -1 -1 H 26.427 V 46 h 15.368 c 0.552 0 1 -0.448 1 -1 s -0.448 -1 -1 -1 H 26.427 V 24.008 h 15.368 C 42.347 24.008 42.795 23.561 42.795 23.008 z M 6.977 34.004 l 17.45 -9.328 v 18.655 L 6.977 34.004 z M 5.855 13.681 l 17.45 9.327 l -17.45 9.328 V 13.681 z M 5.855 35.673 L 23.306 45 l -17.45 9.328 V 35.673 z M 24.427 46.668 v 18.655 l -17.45 -9.327 L 24.427 46.668 z M 5.855 76.319 V 57.664 l 17.45 9.327 L 5.855 76.319 z" style="stroke: none; stroke-width: 1; stroke-dasharray: none; stroke-linecap: butt; stroke-linejoin: miter; stroke-miterlimit: 10; fill: rgb(201,207,212); fill-rule: nonzero; opacity: 1;" transform=" matrix(1 0 0 1 0 0) " stroke-linecap="round" />
	<path d="M 83.381 76.987 h -7.858 L 63.233 66.238 c -0.037 -0.033 -0.084 -0.045 -0.124 -0.071 c -0.06 -0.039 -0.116 -0.08 -0.184 -0.105 c -0.071 -0.027 -0.143 -0.034 -0.217 -0.044 c -0.045 -0.006 -0.086 -0.027 -0.133 -0.027 H 50.778 c -0.553 0 -1 0.447 -1 1 s 0.447 1 1 1 h 11.421 L 74.488 78.74 c 0.182 0.159 0.416 0.247 0.658 0.247 h 8.234 c 0.553 0 1 -0.447 1 -1 S 83.934 76.987 83.381 76.987 z" style="stroke: none; stroke-width: 1; stroke-dasharray: none; stroke-linecap: butt; stroke-linejoin: miter; stroke-miterlimit: 10; fill: rgb(201,207,212); fill-rule: nonzero; opacity: 1;" transform=" matrix(1 0 0 1 0 0) " stroke-linecap="round" />
	<path d="M 50.778 24.008 h 11.797 c 0.125 0 0.249 -0.027 0.367 -0.074 c 0.048 -0.019 0.087 -0.052 0.131 -0.078 c 0.054 -0.031 0.111 -0.053 0.16 -0.095 l 12.289 -10.749 h 7.858 c 0.553 0 1 -0.448 1 -1 s -0.447 -1 -1 -1 h -8.234 c -0.242 0 -0.477 0.088 -0.658 0.247 L 62.199 22.008 H 50.778 c -0.553 0 -1 0.448 -1 1 S 50.226 24.008 50.778 24.008 z" style="stroke: none; stroke-width: 1; stroke-dasharray: none; stroke-linecap: butt; stroke-linejoin: miter; stroke-miterlimit: 10; fill: rgb(201,207,212); fill-rule: nonzero; opacity: 1;" transform=" matrix(1 0 0 1 0 0) " stroke-linecap="round" />
	<path d="M 83.381 60.334 h -7.989 l -12.354 -6.432 c -0.012 -0.006 -0.025 -0.005 -0.037 -0.011 c -0.059 -0.028 -0.125 -0.039 -0.19 -0.055 c -0.067 -0.017 -0.132 -0.038 -0.2 -0.04 c -0.012 0 -0.023 -0.007 -0.035 -0.007 H 50.778 c -0.553 0 -1 0.447 -1 1 s 0.447 1 1 1 h 11.553 l 12.354 6.432 c 0.143 0.074 0.301 0.113 0.462 0.113 h 8.234 c 0.553 0 1 -0.447 1 -1 S 83.934 60.334 83.381 60.334 z" style="stroke: none; stroke-width: 1; stroke-dasharray: none; stroke-linecap: butt; stroke-linejoin: miter; stroke-miterlimit: 10; fill: rgb(201,207,212); fill-rule: nonzero; opacity: 1;" transform=" matrix(1 0 0 1 0 0) " stroke-linecap="round" />
	<path d="M 83.381 27.667 h -8.234 c -0.161 0 -0.319 0.039 -0.462 0.113 L 62.33 34.211 H 50.778 c -0.553 0 -1 0.448 -1 1 s 0.447 1 1 1 h 11.797 c 0 0 0 0 0 0 c 0 0 0 0 0.001 0 c 0.117 0 0.233 -0.028 0.347 -0.07 c 0.022 -0.008 0.043 -0.014 0.065 -0.024 c 0.016 -0.007 0.033 -0.01 0.049 -0.018 l 12.354 -6.432 h 7.989 c 0.553 0 1 -0.448 1 -1 S 83.934 27.667 83.381 27.667 z" style="stroke: none; stroke-width: 1; stroke-dasharray: none; stroke-linecap: butt; stroke-linejoin: miter; stroke-miterlimit: 10; fill: rgb(201,207,212); fill-rule: nonzero; opacity: 1;" transform=" matrix(1 0 0 1 0 0) " stroke-linecap="round" />
	<path d="M 50.778 46 h 29.511 c 0.553 0 1 -0.448 1 -1 s -0.447 -1 -1 -1 H 50.778 c -0.553 0 -1 0.448 -1 1 S 50.226 46 50.778 46 z" style="stroke: none; stroke-width: 1; stroke-dasharray: none; stroke-linecap: butt; stroke-linejoin: miter; stroke-miterlimit: 10; fill: rgb(201,207,212); fill-rule: nonzero; opacity: 1;" transform=" matrix(1 0 0 1 0 0) " stroke-linecap="round" />
	<path d="M 35.615 29.696 v 6.062 c 0 0.552 0.448 1 1 1 s 1 -0.448 1 -1 v -6.062 c 0 -0.552 -0.448 -1 -1 -1 S 35.615 29.144 35.615 29.696 z" style="stroke: none; stroke-width: 1; stroke-dasharray: none; stroke-linecap: butt; stroke-linejoin: miter; stroke-miterlimit: 10; fill: rgb(201,207,212); fill-rule: nonzero; opacity: 1;" transform=" matrix(1 0 0 1 0 0) " stroke-linecap="round" />
	<path d="M 35.615 54.242 v 6.062 c 0 0.553 0.448 1 1 1 s 1 -0.447 1 -1 v -6.062 c 0 -0.553 -0.448 -1 -1 -1 S 35.615 53.689 35.615 54.242 z" style="stroke: none; stroke-width: 1; stroke-dasharray: none; stroke-linecap: butt; stroke-linejoin: miter; stroke-miterlimit: 10; fill: rgb(201,207,212); fill-rule: nonzero; opacity: 1;" transform=" matrix(1 0 0 1 0 0) " stroke-linecap="round" />
	<circle cx="4.855" cy="12.015" r="4.855" style="stroke: none; stroke-width: 1; stroke-dasharray: none; stroke-linecap: butt; stroke-linejoin: miter; stroke-miterlimit: 10; fill: rgb(247,191,80); fill-rule: nonzero; opacity: 1;" transform="  matrix(1 0 0 1 0 0) "/>
	<circle cx="4.855" cy="34.004999999999995" r="4.855" style="stroke: none; stroke-width: 1; stroke-dasharray: none; stroke-linecap: butt; stroke-linejoin: miter; stroke-miterlimit: 10; fill: rgb(241,123,123); fill-rule: nonzero; opacity: 1;" transform="  matrix(1 0 0 1 0 0) "/>
	<circle cx="4.855" cy="55.995000000000005" r="4.855" style="stroke: none; stroke-width: 1; stroke-dasharray: none; stroke-linecap: butt; stroke-linejoin: miter; stroke-miterlimit: 10; fill: rgb(247,191,80); fill-rule: nonzero; opacity: 1;" transform="  matrix(1 0 0 1 0 0) "/>
	<circle cx="4.855" cy="77.985" r="4.855" style="stroke: none; stroke-width: 1; stroke-dasharray: none; stroke-linecap: butt; stroke-linejoin: miter; stroke-miterlimit: 10; fill: rgb(126,198,197); fill-rule: nonzero; opacity: 1;" transform="  matrix(1 0 0 1 0 0) "/>
	<circle cx="25.425" cy="23.005" r="4.855" style="stroke: none; stroke-width: 1; stroke-dasharray: none; stroke-linecap: butt; stroke-linejoin: miter; stroke-miterlimit: 10; fill: rgb(247,191,80); fill-rule: nonzero; opacity: 1;" transform="  matrix(1 0 0 1 0 0) "/>
	<circle cx="25.425" cy="44.995000000000005" r="4.855" style="stroke: none; stroke-width: 1; stroke-dasharray: none; stroke-linecap: butt; stroke-linejoin: miter; stroke-miterlimit: 10; fill: rgb(126,198,197); fill-rule: nonzero; opacity: 1;" transform="  matrix(1 0 0 1 0 0) "/>
	<circle cx="25.425" cy="66.995" r="4.855" style="stroke: none; stroke-width: 1; stroke-dasharray: none; stroke-linecap: butt; stroke-linejoin: miter; stroke-miterlimit: 10; fill: rgb(241,123,123); fill-rule: nonzero; opacity: 1;" transform="  matrix(1 0 0 1 0 0) "/>
	<circle cx="85.14500000000001" cy="12.015" r="4.855" style="stroke: none; stroke-width: 1; stroke-dasharray: none; stroke-linecap: butt; stroke-linejoin: miter; stroke-miterlimit: 10; fill: rgb(247,191,80); fill-rule: nonzero; opacity: 1;" transform="  matrix(1 0 0 1 0 0) "/>
	<circle cx="85.14500000000001" cy="77.985" r="4.855" style="stroke: none; stroke-width: 1; stroke-dasharray: none; stroke-linecap: butt; stroke-linejoin: miter; stroke-miterlimit: 10; fill: rgb(126,198,197); fill-rule: nonzero; opacity: 1;" transform="  matrix(1 0 0 1 0 0) "/>
	<circle cx="85.14500000000001" cy="61.334999999999994" r="4.855" style="stroke: none; stroke-width: 1; stroke-dasharray: none; stroke-linecap: butt; stroke-linejoin: miter; stroke-miterlimit: 10; fill: rgb(241,123,123); fill-rule: nonzero; opacity: 1;" transform="  matrix(1 0 0 1 0 0) "/>
	<circle cx="85.14500000000001" cy="28.665" r="4.855" style="stroke: none; stroke-width: 1; stroke-dasharray: none; stroke-linecap: butt; stroke-linejoin: miter; stroke-miterlimit: 10; fill: rgb(241,123,123); fill-rule: nonzero; opacity: 1;" transform="  matrix(1 0 0 1 0 0) "/>
	<circle cx="85.14500000000001" cy="44.995000000000005" r="4.855" style="stroke: none; stroke-width: 1; stroke-dasharray: none; stroke-linecap: butt; stroke-linejoin: miter; stroke-miterlimit: 10; fill: rgb(247,191,80); fill-rule: nonzero; opacity: 1;" transform="  matrix(1 0 0 1 0 0) "/>
	<rect x="41.8" y="15.45" rx="0" ry="0" width="8.98" height="59.11" style="stroke: none; stroke-width: 1; stroke-dasharray: none; stroke-linecap: butt; stroke-linejoin: miter; stroke-miterlimit: 10; fill: rgb(176,182,188); fill-rule: nonzero; opacity: 1;" transform=" matrix(1 0 0 1 0 0) "/>
</g>
</svg>